<svg xmlns="http://www.w3.org/2000/svg" viewBox="0 0 289.21 137.91"><defs><style>.cls-1{fill:#f2f2f2;stroke:#f2f2f2;stroke-miterlimit:10;}.cls-2{fill:#96cc12;}</style></defs><title>logo-eness-blanc</title><g id="Calque_2" data-name="Calque 2"><g id="Calque_1-2" data-name="Calque 1"><path class="cls-1" d="M68.14.5C30.84.5.5,31.21.5,69s30.34,68.46,67.64,68.46a67.38,67.38,0,0,0,50.4-22.8l-.92-.84a66.16,66.16,0,0,1-49.48,22.39,65.47,65.47,0,0,1-26-5.36c-11.28-6.93-31.38-24.48-31.67-60.69H135.78V69C135.78,31.21,105.43.5,68.14.5ZM10.49,68.86C10.71,24.72,40.59,8.31,48,4.92A65.16,65.16,0,0,1,68.14,1.75a66,66,0,0,1,52.05,25.53,27.16,27.16,0,0,1,4.43,14.94c0,14.06-10.53,25.57-23.91,26.64Z"/><path class="cls-1" d="M183.72,102.89,155.49,61v41.9h-1.12V59.11h1.12l28.23,41.77V59.11h1.05v43.78Z"/><path class="cls-1" d="M196.39,102.89V59.11H217V60.3H197.57V77.06h14.08l-.43,1.19H197.57V101.7h19.34v1.19Z"/><path class="cls-2" d="M225.37,91.75c0,4.51,4,10.7,13.16,10.7,7.36,0,13.54-2.94,13.54-11.26,0-13.13-26.94-8.88-26.94-22,0-5.25,4.32-10.75,13.9-10.75a18.52,18.52,0,0,1,9,1.87l-.5,1.25a19.68,19.68,0,0,0-8.4-1.94c-6.8,0-12.73,3.32-12.73,9.76,0,11.44,26.94,7.69,26.94,21.76,0,7.19-4.2,12.38-14.76,12.38-9.58,0-14.4-6.25-14.59-11.82Z"/><path class="cls-1" d="M260.72,91.75c0,4.51,4,10.7,13.16,10.7,7.35,0,13.53-2.94,13.53-11.26,0-13.13-26.94-8.88-26.94-22,0-5.25,4.32-10.75,13.9-10.75a18.52,18.52,0,0,1,9,1.87l-.49,1.25a19.72,19.72,0,0,0-8.4-1.94c-6.8,0-12.73,3.32-12.73,9.76,0,11.44,26.94,7.69,26.94,21.76,0,7.19-4.2,12.38-14.77,12.38-9.58,0-14.4-6.25-14.58-11.82Z"/></g></g></svg>